<svg width="138" height="130" viewBox="0 0 138 130" fill="none" xmlns="http://www.w3.org/2000/svg">
<mask id="mask0_1508_7833" style="mask-type:alpha" maskUnits="userSpaceOnUse" x="10" y="0" width="128" height="130">
<ellipse cx="74.0751" cy="64.9414" rx="63.9266" ry="64.9414" fill="#CABEFF"/>
</mask>
<g mask="url(#mask0_1508_7833)">
<ellipse cx="74.0751" cy="64.9414" rx="63.9266" ry="64.9414" fill="#CFC8F4"/>
<path opacity="0.6" fill-rule="evenodd" clip-rule="evenodd" d="M4.78341 1.39712C4.78341 0.62551 5.40893 0 6.18054 0H26.2887C27.0604 0 27.6859 0.625515 27.6859 1.39713V37.8041L58.8903 19.605C59.5568 19.2163 60.4075 19.4442 60.7904 20.1142L70.8551 37.724C71.238 38.3939 71.008 39.2521 70.3415 39.6408L39.1394 57.8386L70.3404 76.0357C71.007 76.4244 71.2369 77.2826 70.854 77.9525L60.7893 95.5624C60.4065 96.2323 59.5557 96.4602 58.8892 96.0715L27.6859 77.873V114.28C27.6859 115.051 27.0604 115.677 26.2887 115.677H6.18054C5.40893 115.677 4.78341 115.051 4.78341 114.28V77.8757L-26.4153 96.0715C-27.0818 96.4602 -27.9326 96.2323 -28.3154 95.5624L-38.3801 77.9525C-38.763 77.2826 -38.5331 76.4244 -37.8665 76.0357L-6.66552 57.8386L-37.8676 39.6408C-38.5342 39.2521 -38.7641 38.3939 -38.3812 37.724L-28.3165 20.1142C-27.9337 19.4442 -27.0829 19.2163 -26.4164 19.605L4.78341 37.8014V1.39712Z" fill="white"/>
<path d="M94.3402 52.7649C94.3402 63.3959 85.7221 72.0141 75.091 72.0141C64.46 72.0141 55.8419 63.3959 55.8419 52.7649C55.8419 42.1339 64.46 33.5157 75.091 33.5157C85.7221 33.5157 94.3402 42.1339 94.3402 52.7649Z" stroke="#932DF9" stroke-width="2.09"/>
<g style="mix-blend-mode:multiply">
<path fill-rule="evenodd" clip-rule="evenodd" d="M107.562 97.4116C107.562 79.4785 93.0248 64.9409 75.0918 64.9409C57.1587 64.9409 42.6211 79.4785 42.6211 97.4116C42.6211 97.4116 42.6211 97.4116 42.6211 97.4116L107.562 97.4116Z" fill="#932DF9"/>
</g>
</g>
<ellipse cx="14.2059" cy="87.265" rx="14.2059" ry="14.2059" fill="#8DF637"/>
<path fill-rule="evenodd" clip-rule="evenodd" d="M7.39444 84.7533L4.88316 87.2645L9.9055 92.2869L9.9053 92.2871L12.4166 94.7983L12.4168 94.7981L12.417 94.7984L14.9283 92.2871L14.928 92.2869L23.7173 83.4976L21.206 80.9863L12.4168 89.7756L7.39444 84.7533Z" fill="black"/>
</svg>
